<svg xmlns="http://www.w3.org/2000/svg" xmlns:xlink="http://www.w3.org/1999/xlink" contentStyleType="text/css" data-diagram-type="CLASS" height="1233px" preserveAspectRatio="none" style="width:2999px;height:1233px;background:#FFFFFF;" version="1.1" viewBox="0 0 2999 1233" width="2999px" zoomAndPan="magnify"><title>Train Ticket Booking System - Class Diagram</title><defs/><g><g class="title" data-source-line="1"><text fill="#000000" font-family="sans-serif" font-size="14" font-weight="bold" lengthAdjust="spacing" textLength="354.2041" x="1315.7329" y="22.9951">Train Ticket Booking System - Class Diagram</text><text fill="#808080" font-family="sans-serif" font-size="10" font-weight="bold" lengthAdjust="spacing" textLength="282.1094" x="1351.7803" y="35.5791">(Note: Getters and setters are omitted for clarity)</text></g><!--cluster Util Package--><g class="cluster" data-entity="Util Package" data-source-line="10" data-uid="ent0002" id="cluster_Util Package"><rect fill="none" height="132" rx="2.5" ry="2.5" style="stroke:#000000;stroke-width:1.5;" width="951" x="865" y="478.4375"/><text fill="#000000" font-family="sans-serif" font-size="14" font-weight="bold" lengthAdjust="spacing" textLength="98.8135" x="1291.0933" y="493.4326">Util Package</text></g><!--cluster Services Package--><g class="cluster" data-entity="Services Package" data-source-line="25" data-uid="ent0007" id="cluster_Services Package"><rect fill="none" height="603" rx="2.5" ry="2.5" style="stroke:#000000;stroke-width:1.5;" width="834" x="7" y="55.9375"/><text fill="#000000" font-family="sans-serif" font-size="14" font-weight="bold" lengthAdjust="spacing" textLength="137.6895" x="355.1553" y="70.9326">Services Package</text></g><!--cluster Entities Package--><g class="cluster" data-entity="Entities Package" data-source-line="63" data-uid="ent0011" id="cluster_Entities Package"><rect fill="none" height="798" rx="2.5" ry="2.5" style="stroke:#000000;stroke-width:1.5;" width="928" x="1840" y="429.9375"/><text fill="#000000" font-family="sans-serif" font-size="14" font-weight="bold" lengthAdjust="spacing" textLength="131.4961" x="2238.252" y="444.9326">Entities Package</text></g><!--class UserServiceUtil--><g class="entity" data-entity="UserServiceUtil" data-source-line="11" data-uid="ent0003" id="entity_UserServiceUtil"><rect fill="#F1F1F1" height="80.5938" rx="2.5" ry="2.5" style="stroke:#181818;stroke-width:0.5;" width="578.5078" x="881.5" y="513.4375"/><ellipse cx="1112.9204" cy="529.4375" fill="#ADD1B2" rx="11" ry="11" style="stroke:#181818;stroke-width:1;"/><path d="M1115.8892,535.0781 Q1115.311,535.375 1114.6704,535.5156 Q1114.0298,535.6719 1113.3267,535.6719 Q1110.8267,535.6719 1109.4985,534.0313 Q1108.186,532.375 1108.186,529.25 Q1108.186,526.125 1109.4985,524.4688 Q1110.8267,522.8125 1113.3267,522.8125 Q1114.0298,522.8125 1114.6704,522.9688 Q1115.3267,523.125 1115.8892,523.4219 L1115.8892,526.1406 Q1115.2642,525.5625 1114.6704,525.2969 Q1114.0767,525.0156 1113.4517,525.0156 Q1112.1079,525.0156 1111.4204,526.0938 Q1110.7329,527.1563 1110.7329,529.25 Q1110.7329,531.3438 1111.4204,532.4219 Q1112.1079,533.4844 1113.4517,533.4844 Q1114.0767,533.4844 1114.6704,533.2188 Q1115.2642,532.9375 1115.8892,532.3594 L1115.8892,535.0781 Z " fill="#000000"/><text fill="#000000" font-family="sans-serif" font-size="14" lengthAdjust="spacing" textLength="107.167" x="1133.4204" y="534.2842">UserServiceUtil</text><line style="stroke:#181818;stroke-width:0.5;" x1="882.5" x2="1459.0078" y1="545.4375" y2="545.4375"/><line style="stroke:#181818;stroke-width:0.5;" x1="882.5" x2="1459.0078" y1="553.4375" y2="553.4375"/><text fill="#000000" font-family="sans-serif" font-size="14" lengthAdjust="spacing" textLength="367.7119" x="887.5" y="570.4326">+static hashPassword(plainPassword: String): String</text><text fill="#000000" font-family="sans-serif" font-size="14" lengthAdjust="spacing" textLength="566.5078" x="887.5" y="586.7295">+static checkPassword(plainPassword: String, hashedPassword: String): boolean</text></g><g class="entity" data-entity="GMN4" data-source-line="17" data-uid="ent0005" id="entity_GMN4"><path d="M1496,533.9375 L1496,549.9375 L1460.74,553.9375 L1496,557.9375 L1496,574.2031 A0,0 0 0 0 1496,574.2031 L1799.5723,574.2031 A0,0 0 0 0 1799.5723,574.2031 L1799.5723,543.9375 L1789.5723,533.9375 L1496,533.9375 A0,0 0 0 0 1496,533.9375" fill="#FEFFDD" style="stroke:#181818;stroke-width:0.5;"/><path d="M1789.5723,533.9375 L1789.5723,543.9375 L1799.5723,543.9375 L1789.5723,533.9375" fill="#FEFFDD" style="stroke:#181818;stroke-width:0.5;"/><text fill="#000000" font-family="sans-serif" font-size="13" lengthAdjust="spacing" textLength="282.5723" x="1502" y="551.0044">Provides password hashing and verification</text><text fill="#000000" font-family="sans-serif" font-size="13" lengthAdjust="spacing" textLength="87.7627" x="1502" y="566.1372">using BCrypt.</text></g><!--class UserBookingService--><g class="entity" data-entity="UserBookingService" data-source-line="26" data-uid="ent0008" id="entity_UserBookingService"><rect fill="#F1F1F1" height="276.1563" rx="2.5" ry="2.5" style="stroke:#181818;stroke-width:0.5;" width="802.9043" x="22.5" y="90.9375"/><ellipse cx="349.6304" cy="106.9375" fill="#ADD1B2" rx="11" ry="11" style="stroke:#181818;stroke-width:1;"/><path d="M352.5991,112.5781 Q352.021,112.875 351.3804,113.0156 Q350.7397,113.1719 350.0366,113.1719 Q347.5366,113.1719 346.2085,111.5313 Q344.896,109.875 344.896,106.75 Q344.896,103.625 346.2085,101.9688 Q347.5366,100.3125 350.0366,100.3125 Q350.7397,100.3125 351.3804,100.4688 Q352.0366,100.625 352.5991,100.9219 L352.5991,103.6406 Q351.9741,103.0625 351.3804,102.7969 Q350.7866,102.5156 350.1616,102.5156 Q348.8179,102.5156 348.1304,103.5938 Q347.4429,104.6563 347.4429,106.75 Q347.4429,108.8438 348.1304,109.9219 Q348.8179,110.9844 350.1616,110.9844 Q350.7866,110.9844 351.3804,110.7188 Q351.9741,110.4375 352.5991,109.8594 L352.5991,112.5781 Z " fill="#000000"/><text fill="#000000" font-family="sans-serif" font-size="14" lengthAdjust="spacing" textLength="140.1436" x="370.1304" y="111.7842">UserBookingService</text><line style="stroke:#181818;stroke-width:0.5;" x1="23.5" x2="824.4043" y1="122.9375" y2="122.9375"/><text fill="#000000" font-family="sans-serif" font-size="14" lengthAdjust="spacing" textLength="76.665" x="28.5" y="139.9326">-user: User</text><text fill="#000000" font-family="sans-serif" font-size="14" lengthAdjust="spacing" textLength="149.0713" x="28.5" y="156.2295">-userList: List&lt;User&gt;</text><text fill="#000000" font-family="sans-serif" font-size="14" lengthAdjust="spacing" textLength="208.5576" x="28.5" y="172.5264">-objectMapper: ObjectMapper</text><text fill="#000000" font-family="sans-serif" font-size="14" lengthAdjust="spacing" textLength="137.8057" x="28.5" y="188.8232">-USER_PATH: String</text><line style="stroke:#181818;stroke-width:1;" x1="23.5" x2="824.4043" y1="196.125" y2="196.125"/><text fill="#000000" font-family="sans-serif" font-size="14" lengthAdjust="spacing" textLength="162.7979" x="28.5" y="213.1201">+UserBookingService()</text><text fill="#000000" font-family="sans-serif" font-size="14" lengthAdjust="spacing" textLength="234.4111" x="28.5" y="229.417">+UserBookingService(user: User)</text><text fill="#000000" font-family="sans-serif" font-size="14" lengthAdjust="spacing" textLength="180.79" x="28.5" y="245.7139">+loadUsers(): List&lt;User&gt;</text><text fill="#000000" font-family="sans-serif" font-size="14" lengthAdjust="spacing" textLength="339.1445" x="28.5" y="262.0107">+loginUser(userToLogin: User): Optional&lt;User&gt;</text><text fill="#000000" font-family="sans-serif" font-size="14" lengthAdjust="spacing" textLength="216.3916" x="28.5" y="278.3076">+signUp(user1: User): boolean</text><text fill="#000000" font-family="sans-serif" font-size="14" lengthAdjust="spacing" textLength="153.542" x="28.5" y="294.6045">+fetchBooking(): void</text><text fill="#000000" font-family="sans-serif" font-size="14" lengthAdjust="spacing" textLength="292.8857" x="28.5" y="310.9014">+cancelBooking(ticketId: String): boolean</text><text fill="#000000" font-family="sans-serif" font-size="14" lengthAdjust="spacing" textLength="417.375" x="28.5" y="327.1982">+getTrains(source: String, destination: String): List&lt;Train&gt;</text><text fill="#000000" font-family="sans-serif" font-size="14" lengthAdjust="spacing" textLength="329.916" x="28.5" y="343.4951">+fetchSeats(train: Train): List&lt;List&lt;Integer&gt;&gt;</text><text fill="#000000" font-family="sans-serif" font-size="14" lengthAdjust="spacing" textLength="790.9043" x="28.5" y="359.792">+bookTrainSeat(train: Train, row: int, seat: int, source: String, destination: String, dateOfTravel: String): boolean</text></g><!--class TrainService--><g class="entity" data-entity="TrainService" data-source-line="44" data-uid="ent0009" id="entity_TrainService"><rect fill="#F1F1F1" height="178.375" rx="2.5" ry="2.5" style="stroke:#181818;stroke-width:0.5;" width="453.1982" x="328.5" y="464.9375"/><ellipse cx="507.1538" cy="480.9375" fill="#ADD1B2" rx="11" ry="11" style="stroke:#181818;stroke-width:1;"/><path d="M510.1226,486.5781 Q509.5444,486.875 508.9038,487.0156 Q508.2632,487.1719 507.5601,487.1719 Q505.0601,487.1719 503.7319,485.5313 Q502.4194,483.875 502.4194,480.75 Q502.4194,477.625 503.7319,475.9688 Q505.0601,474.3125 507.5601,474.3125 Q508.2632,474.3125 508.9038,474.4688 Q509.5601,474.625 510.1226,474.9219 L510.1226,477.6406 Q509.4976,477.0625 508.9038,476.7969 Q508.3101,476.5156 507.6851,476.5156 Q506.3413,476.5156 505.6538,477.5938 Q504.9663,478.6563 504.9663,480.75 Q504.9663,482.8438 505.6538,483.9219 Q506.3413,484.9844 507.6851,484.9844 Q508.3101,484.9844 508.9038,484.7188 Q509.4976,484.4375 510.1226,483.8594 L510.1226,486.5781 Z " fill="#000000"/><text fill="#000000" font-family="sans-serif" font-size="14" lengthAdjust="spacing" textLength="87.3906" x="527.6538" y="485.7842">TrainService</text><line style="stroke:#181818;stroke-width:0.5;" x1="329.5" x2="780.6982" y1="496.9375" y2="496.9375"/><text fill="#000000" font-family="sans-serif" font-size="14" lengthAdjust="spacing" textLength="154.8613" x="334.5" y="513.9326">-trainList: List&lt;Train&gt;</text><text fill="#000000" font-family="sans-serif" font-size="14" lengthAdjust="spacing" textLength="208.5576" x="334.5" y="530.2295">-objectMapper: ObjectMapper</text><text fill="#000000" font-family="sans-serif" font-size="14" lengthAdjust="spacing" textLength="169.9414" x="334.5" y="546.5264">-TRAIN_DB_PATH: String</text><line style="stroke:#181818;stroke-width:1;" x1="329.5" x2="780.6982" y1="553.8281" y2="553.8281"/><text fill="#000000" font-family="sans-serif" font-size="14" lengthAdjust="spacing" textLength="110.0449" x="334.5" y="570.8232">+TrainService()</text><text fill="#000000" font-family="sans-serif" font-size="14" lengthAdjust="spacing" textLength="441.1982" x="334.5" y="587.1201">+searchTrains(source: String, destination: String): List&lt;Train&gt;</text><text fill="#000000" font-family="sans-serif" font-size="14" lengthAdjust="spacing" textLength="232.8525" x="334.5" y="603.417">+addTrain(newTrain: Train): void</text><text fill="#000000" font-family="sans-serif" font-size="14" lengthAdjust="spacing" textLength="285.1064" x="334.5" y="619.7139">+updateTrain(updatedTrain: Train): void</text><text fill="#000000" font-family="sans-serif" font-size="14" lengthAdjust="spacing" textLength="195.9043" x="334.5" y="636.0107">+saveTrainListToFile(): void</text></g><!--class User--><g class="entity" data-entity="User" data-source-line="64" data-uid="ent0012" id="entity_User"><rect fill="#F1F1F1" height="178.375" rx="2.5" ry="2.5" style="stroke:#181818;stroke-width:0.5;" width="771.6846" x="1856" y="464.9375"/><ellipse cx="2221.6372" cy="480.9375" fill="#ADD1B2" rx="11" ry="11" style="stroke:#181818;stroke-width:1;"/><path d="M2224.606,486.5781 Q2224.0278,486.875 2223.3872,487.0156 Q2222.7466,487.1719 2222.0435,487.1719 Q2219.5435,487.1719 2218.2153,485.5313 Q2216.9028,483.875 2216.9028,480.75 Q2216.9028,477.625 2218.2153,475.9688 Q2219.5435,474.3125 2222.0435,474.3125 Q2222.7466,474.3125 2223.3872,474.4688 Q2224.0435,474.625 2224.606,474.9219 L2224.606,477.6406 Q2223.981,477.0625 2223.3872,476.7969 Q2222.7935,476.5156 2222.1685,476.5156 Q2220.8247,476.5156 2220.1372,477.5938 Q2219.4497,478.6563 2219.4497,480.75 Q2219.4497,482.8438 2220.1372,483.9219 Q2220.8247,484.9844 2222.1685,484.9844 Q2222.7935,484.9844 2223.3872,484.7188 Q2223.981,484.4375 2224.606,483.8594 L2224.606,486.5781 Z " fill="#000000"/><text fill="#000000" font-family="sans-serif" font-size="14" lengthAdjust="spacing" textLength="31.9102" x="2242.1372" y="485.7842">User</text><line style="stroke:#181818;stroke-width:0.5;" x1="1857" x2="2626.6846" y1="496.9375" y2="496.9375"/><text fill="#000000" font-family="sans-serif" font-size="14" lengthAdjust="spacing" textLength="95.7031" x="1862" y="513.9326">-name: String</text><text fill="#000000" font-family="sans-serif" font-size="14" lengthAdjust="spacing" textLength="122.7119" x="1862" y="530.2295">-password: String</text><text fill="#000000" font-family="sans-serif" font-size="14" lengthAdjust="spacing" textLength="173.3867" x="1862" y="546.5264">-hashedPassword: String</text><text fill="#000000" font-family="sans-serif" font-size="14" lengthAdjust="spacing" textLength="203.4238" x="1862" y="562.8232">-ticketsBooked: List&lt;Ticket&gt;</text><text fill="#000000" font-family="sans-serif" font-size="14" lengthAdjust="spacing" textLength="99.5518" x="1862" y="579.1201">-userId: String</text><line style="stroke:#181818;stroke-width:1;" x1="1857" x2="2626.6846" y1="586.4219" y2="586.4219"/><text fill="#000000" font-family="sans-serif" font-size="14" lengthAdjust="spacing" textLength="54.5645" x="1862" y="603.417">+User()</text><text fill="#000000" font-family="sans-serif" font-size="14" lengthAdjust="spacing" textLength="759.6846" x="1862" y="619.7139">+User(name: String, password: String, hashedPassword: String, ticketsBooked: List&lt;Ticket&gt;, userId: String)</text><text fill="#000000" font-family="sans-serif" font-size="14" lengthAdjust="spacing" textLength="143.9854" x="1862" y="636.0107">+printTickets(): void</text></g><!--class Ticket--><g class="entity" data-entity="Ticket" data-source-line="76" data-uid="ent0013" id="entity_Ticket"><rect fill="#F1F1F1" height="235.2656" rx="2.5" ry="2.5" style="stroke:#181818;stroke-width:0.5;" width="884.498" x="1862" y="721.9375"/><ellipse cx="2278.8247" cy="737.9375" fill="#ADD1B2" rx="11" ry="11" style="stroke:#181818;stroke-width:1;"/><path d="M2281.7935,743.5781 Q2281.2153,743.875 2280.5747,744.0156 Q2279.9341,744.1719 2279.231,744.1719 Q2276.731,744.1719 2275.4028,742.5313 Q2274.0903,740.875 2274.0903,737.75 Q2274.0903,734.625 2275.4028,732.9688 Q2276.731,731.3125 2279.231,731.3125 Q2279.9341,731.3125 2280.5747,731.4688 Q2281.231,731.625 2281.7935,731.9219 L2281.7935,734.6406 Q2281.1685,734.0625 2280.5747,733.7969 Q2279.981,733.5156 2279.356,733.5156 Q2278.0122,733.5156 2277.3247,734.5938 Q2276.6372,735.6563 2276.6372,737.75 Q2276.6372,739.8438 2277.3247,740.9219 Q2278.0122,741.9844 2279.356,741.9844 Q2279.981,741.9844 2280.5747,741.7188 Q2281.1685,741.4375 2281.7935,740.8594 L2281.7935,743.5781 Z " fill="#000000"/><text fill="#000000" font-family="sans-serif" font-size="14" lengthAdjust="spacing" textLength="42.3486" x="2299.3247" y="742.7842">Ticket</text><line style="stroke:#181818;stroke-width:0.5;" x1="1863" x2="2745.498" y1="753.9375" y2="753.9375"/><text fill="#000000" font-family="sans-serif" font-size="14" lengthAdjust="spacing" textLength="108.3018" x="1868" y="770.9326">-ticketId: String</text><text fill="#000000" font-family="sans-serif" font-size="14" lengthAdjust="spacing" textLength="99.5518" x="1868" y="787.2295">-userId: String</text><text fill="#000000" font-family="sans-serif" font-size="14" lengthAdjust="spacing" textLength="102.7988" x="1868" y="803.5264">-source: String</text><text fill="#000000" font-family="sans-serif" font-size="14" lengthAdjust="spacing" textLength="134.4424" x="1868" y="819.8232">-destination: String</text><text fill="#000000" font-family="sans-serif" font-size="14" lengthAdjust="spacing" textLength="147.1914" x="1868" y="836.1201">-dateOfTravel: String</text><line style="stroke:#181818;stroke-width:1;" x1="1863" x2="2745.498" y1="843.4219" y2="843.4219"/><text fill="#000000" font-family="sans-serif" font-size="14" lengthAdjust="spacing" textLength="58.2422" x="1868" y="860.417">-row: int</text><text fill="#000000" font-family="sans-serif" font-size="14" lengthAdjust="spacing" textLength="52.623" x="1868" y="876.7139">-col: int</text><text fill="#000000" font-family="sans-serif" font-size="14" lengthAdjust="spacing" textLength="82.4551" x="1868" y="893.0107">-train: Train</text><line style="stroke:#181818;stroke-width:1;" x1="1863" x2="2745.498" y1="900.3125" y2="900.3125"/><text fill="#000000" font-family="sans-serif" font-size="14" lengthAdjust="spacing" textLength="65.0029" x="1868" y="917.3076">+Ticket()</text><text fill="#000000" font-family="sans-serif" font-size="14" lengthAdjust="spacing" textLength="872.498" x="1868" y="933.6045">+Ticket(ticketId: String, userId: String, source: String, destination: String, dateOfTravel: String, row: int, col: int, train: Train)</text><text fill="#000000" font-family="sans-serif" font-size="14" lengthAdjust="spacing" textLength="165.4365" x="1868" y="949.9014">+getTicketInfo(): String</text></g><!--class Train--><g class="entity" data-entity="Train" data-source-line="92" data-uid="ent0014" id="entity_Train"><rect fill="#F1F1F1" height="178.375" rx="2.5" ry="2.5" style="stroke:#181818;stroke-width:0.5;" width="896.8506" x="1855.5" y="1033.9375"/><ellipse cx="2281.8506" cy="1049.9375" fill="#ADD1B2" rx="11" ry="11" style="stroke:#181818;stroke-width:1;"/><path d="M2284.8193,1055.5781 Q2284.2412,1055.875 2283.6006,1056.0156 Q2282.96,1056.1719 2282.2568,1056.1719 Q2279.7568,1056.1719 2278.4287,1054.5313 Q2277.1162,1052.875 2277.1162,1049.75 Q2277.1162,1046.625 2278.4287,1044.9688 Q2279.7568,1043.3125 2282.2568,1043.3125 Q2282.96,1043.3125 2283.6006,1043.4688 Q2284.2568,1043.625 2284.8193,1043.9219 L2284.8193,1046.6406 Q2284.1943,1046.0625 2283.6006,1045.7969 Q2283.0068,1045.5156 2282.3818,1045.5156 Q2281.0381,1045.5156 2280.3506,1046.5938 Q2279.6631,1047.6563 2279.6631,1049.75 Q2279.6631,1051.8438 2280.3506,1052.9219 Q2281.0381,1053.9844 2282.3818,1053.9844 Q2283.0068,1053.9844 2283.6006,1053.7188 Q2284.1943,1053.4375 2284.8193,1052.8594 L2284.8193,1055.5781 Z " fill="#000000"/><text fill="#000000" font-family="sans-serif" font-size="14" lengthAdjust="spacing" textLength="35.6494" x="2302.3506" y="1054.7842">Train</text><line style="stroke:#181818;stroke-width:0.5;" x1="1856.5" x2="2751.3506" y1="1065.9375" y2="1065.9375"/><text fill="#000000" font-family="sans-serif" font-size="14" lengthAdjust="spacing" textLength="101.6025" x="1861.5" y="1082.9326">-trainId: String</text><text fill="#000000" font-family="sans-serif" font-size="14" lengthAdjust="spacing" textLength="107.625" x="1861.5" y="1099.2295">-trainNo: String</text><text fill="#000000" font-family="sans-serif" font-size="14" lengthAdjust="spacing" textLength="197.7158" x="1861.5" y="1115.5264">-seats: List&lt;List&lt;Integer&gt;&gt;</text><text fill="#000000" font-family="sans-serif" font-size="14" lengthAdjust="spacing" textLength="249.8535" x="1861.5" y="1131.8232">-stationTimes: Map&lt;String, String&gt;</text><text fill="#000000" font-family="sans-serif" font-size="14" lengthAdjust="spacing" textLength="159.4072" x="1861.5" y="1148.1201">-stations: List&lt;String&gt;</text><line style="stroke:#181818;stroke-width:1;" x1="1856.5" x2="2751.3506" y1="1155.4219" y2="1155.4219"/><text fill="#000000" font-family="sans-serif" font-size="14" lengthAdjust="spacing" textLength="58.3037" x="1861.5" y="1172.417">+Train()</text><text fill="#000000" font-family="sans-serif" font-size="14" lengthAdjust="spacing" textLength="884.8506" x="1861.5" y="1188.7139">+Train(trainId: String, trainNo: String, seats: List&lt;List&lt;Integer&gt;&gt;, stationTimes: Map&lt;String, String&gt;, stations: List&lt;String&gt;)</text><text fill="#000000" font-family="sans-serif" font-size="14" lengthAdjust="spacing" textLength="158.7373" x="1861.5" y="1205.0107">+getTrainInfo(): String</text></g><!--link UserBookingService to TrainService--><g class="link" data-entity-1="UserBookingService" data-entity-2="TrainService" data-source-line="57" data-uid="lnk10" id="link_UserBookingService_TrainService"><path codeLine="57" d="M479.75,367.3875 C493.12,400.3575 504.7839,429.1278 516.9739,459.1678" fill="none" id="UserBookingService-to-TrainService" style="stroke:#181818;stroke-width:1;"/><polygon fill="#181818" points="519.23,464.7275,519.5523,454.8839,517.3499,460.0944,512.1394,457.892,519.23,464.7275" style="stroke:#181818;stroke-width:1;"/><text fill="#000000" font-family="sans-serif" font-size="13" lengthAdjust="spacing" textLength="29.7832" x="499" y="410.0044">uses</text></g><!--reverse link User to Ticket--><g class="link" data-entity-1="User" data-entity-2="Ticket" data-source-line="105" data-uid="lnk15" id="link_User_Ticket"><path codeLine="105" d="M2263.8409,654.8111 C2269.2909,679.7611 2272.76,695.5875 2278.52,721.9275" fill="none" id="User-backto-Ticket" style="stroke:#181818;stroke-width:1;"/><polygon fill="#181818" points="2261.28,643.0875,2258.6526,649.8029,2263.8409,654.8111,2266.4683,648.0957,2261.28,643.0875" style="stroke:#181818;stroke-width:1;"/><text fill="#000000" font-family="sans-serif" font-size="13" lengthAdjust="spacing" textLength="91.8569" x="2272" y="688.0044">ticketsBooked</text><text fill="#000000" font-family="sans-serif" font-size="13" lengthAdjust="spacing" textLength="8.271" x="2254.6183" y="663.4498">1</text><text fill="#000000" font-family="sans-serif" font-size="13" lengthAdjust="spacing" textLength="6.5" x="2270.6956" y="710.9817">*</text></g><!--link Ticket to Train--><g class="link" data-entity-1="Ticket" data-entity-2="Train" data-source-line="106" data-uid="lnk16" id="link_Ticket_Train"><path codeLine="106" d="M2304,956.9675 C2304,982.6775 2304,1003.5075 2304,1027.8675" fill="none" id="Ticket-to-Train" style="stroke:#181818;stroke-width:1;"/><polygon fill="#181818" points="2304,1033.8675,2308,1024.8675,2304,1028.8675,2300,1024.8675,2304,1033.8675" style="stroke:#181818;stroke-width:1;"/><text fill="#000000" font-family="sans-serif" font-size="13" lengthAdjust="spacing" textLength="30.2593" x="2305" y="1000.0044">train</text><text fill="#000000" font-family="sans-serif" font-size="13" lengthAdjust="spacing" textLength="6.5" x="2297.7985" y="977.4304">*</text><text fill="#000000" font-family="sans-serif" font-size="13" lengthAdjust="spacing" textLength="8.271" x="2295.6862" y="1022.9272">1</text></g><!--link UserBookingService to User--><g class="link" data-entity-1="UserBookingService" data-entity-2="User" data-source-line="112" data-uid="lnk17" id="link_UserBookingService_User"><path codeLine="112" d="M825.67,267.9875 C1105.38,298.7075 1485.95,348.9275 1816,421.9375 C1869.36,433.7375 1919.9483,447.2895 1973.5583,463.2095" fill="none" id="UserBookingService-to-User" style="stroke:#181818;stroke-width:1;"/><polygon fill="#181818" points="1979.31,464.9175,1971.8211,458.5209,1974.5169,463.4941,1969.5437,466.1899,1979.31,464.9175" style="stroke:#181818;stroke-width:1;"/><text fill="#000000" font-family="sans-serif" font-size="13" lengthAdjust="spacing" textLength="59.8584" x="1780" y="410.0044">manages</text></g><!--link UserBookingService to Ticket--><g class="link" data-entity-1="UserBookingService" data-entity-2="Ticket" data-source-line="113" data-uid="lnk18" id="link_UserBookingService_Ticket"><path codeLine="113" d="M825.71,235.8475 C1432.62,249.0075 2525.72,290.8175 2646,421.9375 C2719.61,502.1775 2703.19,574.2775 2646,666.9375 C2633.27,687.5675 2621.6995,701.817 2603.5295,717.927" fill="none" id="UserBookingService-to-Ticket" style="stroke:#181818;stroke-width:1;"/><polygon fill="#181818" points="2599.04,721.9075,2608.4279,718.9297,2602.7812,718.5904,2603.1206,712.9437,2599.04,721.9075" style="stroke:#181818;stroke-width:1;"/><text fill="#000000" font-family="sans-serif" font-size="13" lengthAdjust="spacing" textLength="101.5879" x="2696" y="558.5044">creates/cancels</text></g><!--link UserBookingService to Train--><g class="link" data-entity-1="UserBookingService" data-entity-2="Train" data-source-line="114" data-uid="lnk19" id="link_UserBookingService_Train"><path codeLine="114" d="M825.64,232.1575 C1471.14,240.1075 2680.23,274.7075 2806,421.9375 C2960.91,603.2875 2914.92,772.2475 2764,956.9375 C2738.57,988.0575 2711.9638,1010.2791 2677.0738,1030.7691" fill="none" id="UserBookingService-to-Train" style="stroke:#181818;stroke-width:1;"/><polygon fill="#181818" points="2671.9,1033.8075,2681.6863,1032.699,2676.2115,1031.2755,2677.635,1025.8007,2671.9,1033.8075" style="stroke:#181818;stroke-width:1;"/><text fill="#000000" font-family="sans-serif" font-size="13" lengthAdjust="spacing" textLength="90.6699" x="2901" y="688.0044">books/fetches</text></g><!--link TrainService to Train--><g class="link" data-entity-1="TrainService" data-entity-2="Train" data-source-line="115" data-uid="lnk20" id="link_TrainService_Train"><path codeLine="115" d="M781.92,638.1175 C809.84,647.9975 838.03,657.8075 865,666.9375 C1260.84,800.9675 1716.293,942.8507 2007.743,1032.1007" fill="none" id="TrainService-to-Train" style="stroke:#181818;stroke-width:1;"/><polygon fill="#181818" points="2013.48,1033.8575,2006.0457,1027.3976,2008.6991,1032.3935,2003.7032,1035.0469,2013.48,1033.8575" style="stroke:#181818;stroke-width:1;"/><text fill="#000000" font-family="sans-serif" font-size="13" lengthAdjust="spacing" textLength="59.8584" x="1747" y="844.0044">manages</text></g><!--link UserBookingService to UserServiceUtil--><g class="link" data-entity-1="UserBookingService" data-entity-2="UserServiceUtil" data-source-line="116" data-uid="lnk21" id="link_UserBookingService_UserServiceUtil"><path codeLine="116" d="M741.07,367.0375 C863.7,420.0575 989.1328,474.2961 1073.8428,510.9261" fill="none" id="UserBookingService-to-UserServiceUtil" style="stroke:#181818;stroke-width:1;"/><polygon fill="#181818" points="1079.35,513.3075,1072.6768,506.064,1074.7607,511.323,1069.5016,513.4069,1079.35,513.3075" style="stroke:#181818;stroke-width:1;"/><text fill="#000000" font-family="sans-serif" font-size="13" lengthAdjust="spacing" textLength="235.8662" x="843" y="410.0044">uses for password hashing/checking</text></g><!--SRC=[hLTDR-Cs4BtxLn2-nDvApUOg90QShDiLu3g69HTOeC22aMYPjKmA9EF0NUn_xv2KlDHdl6Xri2NEcz4Rpl2HKbJb1CK2KuPYcXo8Ge-S7oZBK7IMYXoHZvvoB2NwH74cyF4lTh_ZJ259_o4FTnzHmdCk7i1odarMN940_KwK8a8Yp58agtj143zIU4ZHZWkKv5XGTPxUt-fWiz58mYiB3F5HWPC3paYapa1Ca4HXbkN40IIQpbmfGLzU5GaJpYBWWZuw4Bd7AN_JIUnmBibeT8CUUYumsMiRXqkqd7zPR8RG9JiqtYgQexLz6gDl8nt2C4DRIKH4n8acn82iJL-_8AcmeWdQOxbV0_QDYtHIv33vrLE08aYCPTFgfksSx4bo6FRsp1j8sX7rXVESO6R2VX-PFmPbGu9cUuNuhadV8DQ2dsXA91J71ZJnzVpg8f-8e3kQ03bkuxvARNfy4kT2_Mf62C3qQqRVhwf5jDZy6JujVg8S9MFPNvAohKkWKnKV-18H651ZS4cb2f3-lTVMcMFcBtz3R_w1YqBxFZjF3cWBYNnTp-FFhMhwlbFODht9TDZyWx4Bp3bEzPYSJ3jPQqH6cHuq4MA-rCzb8CYYq2N4USjDqenj2-DpTq6xdMHXEwAIVSbKKpXncZhc1BE4v9LT6RK9-thJkcH46MsI4ybVHK9-D3XqewBCz9mJmIHjF6PDNX71IawKjWLMy2gy-GcP8XbaxVe1duD1Qj-QguS4VmiGPSe3ZSEgkdsV90nYHPvt4EP4yk65QPktPD1kMqF8QT56tbVsQBoPXwkldnwlw5ENIQr3OGf4ilyVAeNJr8nD67cBwwLgDDDheUVHWkrzEkmWORxZQiPY_XlDIQr7opc_GHkI6x8WS8M4kafGFiZGpd-Ep-NiTMYAxy_grGgqYiWhHM-nYiFuoqzete8fgkYGvjNQXU4ZQTVt8kaTfkvDnEr0iuQbdWQILZKrOxE6aeRf-nBO4hs9IzbhCUtRvRmXNbw3ZllE0WQKnScktYZNepqcVMlDGrUElSatjC8nTAmNrzgX7brJwbyKoXc2mrfpo5MrdbLlagiLfnngfjsSs_yWYAx0Lgoz6jbfOvkmNDYEJ-fdfxQMjaMqiq36ik9TfTDRoV3cuTlJ6cSnFHB0WkpULvdP_mvi5RC5Q8bmlHfcf968r-Jl3T3stcVhzP2STkpM_LMuGKQqpd2mTqJsegTeV3T67tmVZJ-CgtKMr5UpmPOcZTAQgxriPGERzHMA-xHvZYBVY2tQB9RpE7nUHP_3TJJasAFvXdg0ZfY12ii-r2MVH40XYBorvw5-V9cHFeN8MtE6WU2r_SM5lVFsvbU9tPhCnrZpK7zhlZ3Wvby0]--></g></svg>